<svg width="1263" height="834" viewBox="0 0 1263 834" fill="none" xmlns="http://www.w3.org/2000/svg">
<path d="M541.7 0.700022C540.6 1.70002 540.9 7.80002 542 8.50002C543.6 9.50002 546 7.10002 546 4.60002C546 1.40002 543.3 -0.999978 541.7 0.700022Z" fill="white"/>
<path d="M845.3 6.49997C840.5 10.6 836.3 11.6 836.8 8.49997C837.1 6.79997 836.8 6.99997 835 9.19997C832.4 12.6 830 12.8 829.9 9.69997C829.8 7.69997 829.8 7.59997 829.2 9.49997C828.3 12.1 824.9 16 823.4 16C822.7 16 821.2 17.6 820.1 19.6C818.6 22.1 817.4 23.1 816.2 22.8C814.9 22.4 814.4 22.8 814.4 24.3C814.5 25.5 813.6 26.9 812.4 27.5C811.3 28 810.5 29.1 810.8 29.8C811 30.4 809.8 33.3 808.1 36C806.4 38.8 805.3 41 805.6 41C805.9 41 805.2 42.3 804 44C802.8 45.8 802.4 47 803 47C803.8 47 803.9 47.7 803.5 48.7C803.1 49.7 802.7 54 802.6 58.3C802.5 63.9 802.8 66 803.8 66C806.3 66 806.1 69 803.5 72.7C800.8 76.5 800.8 76.5 803.3 73.7C806.8 70 808.3 70.2 807.5 74.2C807.1 76 806.3 78 805.8 78.7C805.2 79.4 805.3 80.1 806 80.5C806.5 80.8 807 81.8 807 82.6C807 84.2 810 87.8 810 86.3C810 85.9 810.4 86.1 810.9 86.9C812 88.7 817.6 86.1 821.5 82C823.1 80.3 824.9 79 825.6 79C826.2 79 827.3 78.3 828 77.5C828.7 76.6 829.9 76.1 830.5 76.4C831.2 76.6 832.2 75.8 832.9 74.4C833.5 73.1 834.8 71.9 835.7 71.9C839.8 71.6 843 70.3 844.6 68.1C845.2 67.3 846.4 66.9 847.4 67.3C848.4 67.7 849 67.4 849 66.6C849 65.8 849.7 65 850.5 64.6C851.3 64.3 852 63.2 852 62.1C852 59.6 856.1 56.7 858.3 57.6C859.5 58 859.7 57.7 859.3 56.1C859 54.7 859.3 53.8 860.4 53.4C861.7 52.9 861.8 52.5 860.9 51.4C859.6 49.8 861.3 47 863.5 47C864.3 47 864.5 46.1 864.2 44.5C864 43 864.2 42 864.9 42C865.8 42 865.8 41.5 865 40C864.2 38.5 864.4 37.6 866 36C867.5 34.5 867.7 34 866.5 34C865.7 34 865 33.3 865 32.5C865 31.7 865.5 31 866.1 31C866.9 31 866.9 30.6 866.2 29.7C865.3 28.7 865.5 27.8 866.6 26.2C868 24.2 868 24 866.6 24C864 24 864.8 21.7 868.2 18.7L871.5 16L868.3 17.7C865.3 19.4 865.1 19.4 863.1 17.6C860.8 15.5 860.4 12 862.2 10.2C864.1 8.29997 862.3 7.59997 859 8.99997C855.2 10.6 852.6 8.89997 853.3 5.29997C854 1.79997 850.1 2.29997 845.3 6.49997Z" fill="white"/>
<path d="M542.8 27.1C540.6 28.3 540.4 33.8 542.3 36.4C544 38.7 547.6 37.8 548.5 34.9C549.3 32.5 547.2 26 545.7 26C545 26 543.7 26.5 542.8 27.1Z" fill="white"/>
<path d="M573.5 77C573.1 77.6 572 77.8 570.9 77.5C569.5 77 569 77.3 569 78.8C569 79.8 568.1 81.5 567 82.5C563 86.1 566.6 95.6 572.6 97.4C574.2 97.9 576.7 98.9 578.2 99.6C581.1 101.2 584 100.5 584 98.4C584 96.9 585.7 93.7 587.9 90.9C589.9 88.4 590 84.9 588.1 83C585.4 80.2 579.1 76.8 578 77.5C577.4 77.9 576.3 77.7 575.5 77C574.6 76.2 574 76.2 573.5 77Z" fill="white"/>
<path d="M668 86.7001C666.6 87.0001 661.7 88.4001 657 90.0001C652.3 91.6001 646.5 93.3001 644 93.9001C639.7 94.9001 639.8 94.9001 646.5 94.5001L653.5 94.1001L648.8 96.0001C646.2 97.1001 642.1 99.1001 639.8 100.6C637.5 102.1 631.8 105 627.1 107.2C618.1 111.4 613 112.4 585.6 115.5C578.5 116.3 564.1 118.4 553.6 120.1C541.8 122 533.1 123 530.5 122.6C528.3 122.3 523.8 121.8 520.5 121.6C517.2 121.4 507.6 120.6 499.2 119.9L483.9 118.6L480.2 113.8C476.3 108.6 474.8 108.8 477.5 114C478.4 115.8 479 117.4 478.7 117.6C478.5 117.9 462.9 116.7 444.2 115C425.4 113.4 408.9 112 407.4 112C405.5 112 404.9 111.6 405.4 110.5C406.3 108.2 403 107.3 401.4 109.4C400.2 111.1 399.2 111.1 380.8 109.5C370 108.5 358.7 108.1 355.1 108.4C343 109.7 319.2 118.6 304.1 127.6C297.3 131.6 296.3 132.5 297.7 133.5C299.1 134.5 298.9 135 296.4 137.4L293.5 140.1L297.2 138.5C302.1 136.5 303.6 136.5 302 138.5C300.3 140.6 301.9 140.4 307.5 138C313.2 135.6 313.3 135.6 311.9 137.8C309.5 141.6 314.5 150 319.1 150C320.1 150 321.2 150.4 321.5 151C322.8 153.1 324.9 151.8 327.5 147.4C330.9 141.6 330.2 137.5 325.3 135.1C323.5 134.2 322 133.2 322 132.9C322 131.6 329.3 130.8 330 132C330.5 132.9 331.5 132.8 333.7 131.7C335.3 130.8 342.2 128.5 348.9 126.5C361.1 122.9 361.1 122.9 362.8 125C363.7 126.1 366.1 127.2 368 127.4C372.2 127.8 377.4 125.5 376.6 123.4C376 121.8 379.1 121.6 391.4 122.7C398.6 123.3 399.1 123.5 398.6 125.4C397.9 128 399.6 130 402.5 130C405.2 130 406.5 127.3 404.9 125.4C403.5 123.6 400.8 123.5 433.7 126.5C474.1 130.1 475.2 130.2 474.7 130.6C474.5 130.8 463.7 132.8 450.6 135.1C433.5 138 426.5 138.9 425.7 138.1C425.1 137.5 423.4 137 422 137C420.6 137 418.8 136.4 418.1 135.7C417.1 134.7 417.8 134.3 421.2 133.3L425.5 132L421.5 132.5C419.3 132.7 415.3 133.2 412.5 133.5C408.7 134 407.8 133.9 409 133C410.3 132.1 410.2 132 408.5 132.4C405.5 133.1 398.9 134.7 395.8 135.4C394 135.8 393 136.7 393 137.8C393 139 393.3 139.1 393.8 138.2C394.3 137.6 398.2 136.6 402.6 136.1C413.2 134.9 414.8 134.9 415.6 136.2C416.6 137.7 413.9 139.1 411.2 138.5C409.9 138.2 408.3 138.3 407.7 138.8C407 139.3 403.6 140.2 400 140.9C395 141.7 393.4 141.7 392.8 140.7C392.2 139.8 392 139.8 392 140.7C392 141.3 390.5 142.3 388.7 142.9C385.3 144.1 380.7 148.2 379.8 151C379.5 151.8 379.6 153.2 380.1 154.1C380.8 155.4 379.2 155.9 369.2 157.4C362.8 158.3 356.5 159.3 355.4 159.6C354.1 159.8 353 159.4 352.6 158.5C351.8 156.3 348.2 156.7 346.9 159.1C345.9 161 345.2 161.2 340.1 160.7C322.7 159 309.7 156.7 306.5 154.9C299.9 151 280 150.8 273.9 154.6C273.4 154.9 273 154.7 273 154.3C273 153.8 277.4 151.1 282.8 148.2C291 143.9 292 143 289.4 143C281.4 143 271 147.7 261 156C257.8 158.8 254.6 161 254 161C253.5 161 253 161.6 253 162.3C253 163.1 252 164.6 250.7 165.8C249.4 167 247.7 169.6 247 171.6C245.8 174.5 245.5 174.8 244.9 173.3C244.5 172.1 245.3 170 247.5 167C252.3 160.4 263.2 142.8 262 143.5C261.5 143.8 256.8 149.7 251.6 156.5C242.5 168.5 242.2 169 242.7 173.1C243.1 175.7 242.9 177.1 242.3 176.7C241.8 176.4 241.3 176.6 241.3 177.3C241.3 178 239.7 181.1 237.7 184.2C225.5 203.1 221.7 236.8 223.8 305.8C224.5 326.5 225.5 358.7 226.1 377.2C226.7 395.7 227 411.6 226.6 412.5C226.3 413.4 225.6 413.8 225 413.5C224.4 413.1 224 406.6 224 397.2C224 382.7 222.5 354.5 219.9 322.5C218.2 300.4 217.6 238 219 224.5C220.3 211.2 223.4 197.8 227.3 188.2C228.7 184.8 229.7 182 229.4 182C228.3 182 223.7 193.1 221.5 201.1C216.1 221.3 215.5 229 215.5 275.5C215.6 304.4 216.1 328.2 217.3 348C219.6 385.9 219.2 438.4 216.6 444.1C216.2 445.1 216.5 446.4 217.4 447.3C218.5 448.3 219 450.7 219 454.3C219 466.4 222.3 494.6 227.5 526C228.8 534.2 226 524.3 221.5 505.3C217.1 486.6 216.8 485 218.4 483.5C219.6 482.3 219.7 481.4 219 479.9C218.4 478.9 217.4 478.1 216.8 478.3C215.6 478.5 214.7 474.6 212 458.2C211.3 454.2 210.6 451.1 210.4 451.3C209.3 452.3 216.2 491.6 221.1 513.5C230.3 553.8 241.9 585.5 254.7 605.5C265.2 621.8 273.3 631 281.7 636.3C295.8 645.2 318 646.4 338.7 639.5C346.6 636.8 352 633.8 350.1 633.2C349.5 633 352.6 630.6 357.1 627.9C367 622 373.8 616.5 375.3 613.3C375.9 612 377.4 610.7 378.6 610.4C379.9 610.1 381.4 608.5 382.1 606.7C382.8 604.9 385.6 600.1 388.3 596C393.2 588.5 400.2 574.6 403.5 565.7C404.5 563.1 405.5 561.1 405.7 561.4C406.4 562.1 399.5 579.1 394.2 589.5C387.7 602.3 382 610.5 372.8 619.8C363.6 629.1 355.5 635 344.8 639.9C333.7 645.1 325.7 647 312.8 647.7C290.7 648.9 274.7 642.2 258.9 625.2C255 621 252.7 618.9 253.9 620.6C255 622.4 259.6 627.2 264.1 631.4C273 639.7 284 645.9 293.8 647.9C301.5 649.5 317.9 649.2 326.8 647.4C363 640.1 391.5 610.5 406.8 564.5C409 557.9 411.7 548.3 412.7 543.3L414.5 534H418.3C421.3 534 422.7 534.7 425.1 537.2C426.8 539.2 427.8 541.1 427.5 542.1C426.8 544.3 428.4 545.4 429.9 543.7C430.7 542.7 430.2 541.5 427.9 538.7L424.9 535H427.5C428.9 535 440 535.9 452.1 537.1C464.3 538.2 474.4 538.9 474.7 538.6C475 538.4 474.9 537.2 474.5 536.1C473.8 533.8 473.6 533.8 442.2 531C424.7 529.5 420.5 528.8 418.8 527.3C416.8 525.6 416.7 525.6 417.3 527.2C417.7 528.2 417.5 529 417 529C416.5 529 416.3 526.6 416.5 523.7C416.7 520.9 417.4 504.5 417.9 487.3C419.3 445.7 420.6 434.6 425.1 425.8C427 422.2 433.2 417 435.7 417C438.1 417 437 418.7 433.9 420C430.6 421.4 426.6 426.1 425.6 430C425.2 431.4 426 430.5 427.3 428C429.8 423.2 436 418.8 439.5 419.2C441.2 419.5 441.4 420.2 441.1 424.6C441 427.5 441.3 430.1 441.9 430.4C443.3 431.3 446 427 446 423.7V420.9L452.3 421.4L458.5 421.9L453 420.9C444.5 419.4 444.1 417.7 452.5 418.7C463.2 419.9 474.7 419.5 483.4 417.6C492.8 415.5 506.5 408.7 513.4 402.7C518.7 398.2 526.6 395.5 530.4 397C532.3 397.7 532.2 397.9 529.5 398.6C527.9 399 525 399.4 523.2 399.4C520.7 399.5 518.7 400.7 514.8 404.3C508.6 410.1 494.4 417.3 484.5 419.5C480.7 420.4 473.3 421.5 468 422L458.5 422.9L469 422.5C487.5 421.7 504.8 415 518 403.4C520.7 401.1 530.2 399 538.4 399C541.1 399 544.6 398.3 546.3 397.5C550.3 395.7 571.5 391.9 573.5 392.6C574.3 393 575.6 392.8 576.3 392.2C577 391.6 589.4 389 604 386.4C628.4 382.1 630.9 381.8 636.2 382.9C639.4 383.5 644.8 384.2 648.2 384.4C651.7 384.6 653.2 384.6 651.5 384.3C649.9 384.1 644.9 383.2 640.5 382.3C636.1 381.4 631.6 380.8 630.5 380.8C629.4 380.9 617.3 382.9 603.5 385.4C589.8 387.8 578.3 389.6 578 389.3C577 388.3 581.6 385.9 583.8 386.3C585 386.5 586 386.4 586 386C586 384.8 599.6 383 603.1 383.7C605.4 384.1 606.6 383.9 607.4 382.8C608.1 381.9 613 380.5 620 379.2C630.7 377.3 632 377.2 638.5 378.6C642.4 379.4 651.6 380.3 659.2 380.7L672.8 381.3L679.3 395C682.9 402.6 686.4 409.1 687 409.5C687.6 409.9 685.7 405.3 682.7 399.3C674.9 383.6 673.7 381 674.3 380.4C675.3 379.4 677.2 382.9 692.9 414.2C701.6 431.7 709.2 446.6 709.9 447.3C711.3 449.1 710.3 457.9 708.3 460.1C707.6 461 707.2 462.5 707.6 463.4C707.9 464.3 707.7 465.7 707.1 466.4C706.3 467.3 706.3 468 706.9 468.4C707.5 468.8 707.7 469.7 707.4 470.4C706.7 472.3 712.1 476 716.6 476.7C719.2 477.1 720.8 476.8 723 475.2L725.8 473.1L729.4 478.3C731.3 481.2 736.8 488.5 741.4 494.7C746.6 501.5 749.4 506.1 748.7 506.4C748 506.7 748.1 506.9 749 506.9C749.9 507 753.9 510.4 758 514.6C771.1 527.9 781.5 534.6 795.3 538.9C808.6 543 825.3 542.6 840.4 538C846.5 536.1 848.7 536.2 846 538.3C844.4 539.6 842 545.5 842 548.2C842 549.1 842.6 550 843.2 550.2C844.2 550.6 844.2 551.2 843.2 553.4C842.1 555.9 842.2 556.2 844 556.7C845.1 557 846 557.6 846 558.1C846 558.6 846.9 559 848 559C849.1 559 850 559.6 850 560.4C850 561.5 850.9 561.7 853.6 561.3C856.5 560.8 857.2 561 856.8 562.1C856.6 562.9 855.5 563.9 854.4 564.4C853.3 564.9 851.3 566.9 850.1 568.8C847.8 572.2 847.8 572.3 849.7 574.2C856 580.4 874.8 572.9 873.6 564.7C873.2 561.8 871.5 560.9 866.2 560.8C862.2 560.7 861.3 560.4 862.1 559.4C862.6 558.8 863.9 558.4 864.9 558.7C866.3 559 867 558.4 867.8 556C868.5 554.3 869.4 553.1 869.9 553.4C870.8 554 874 544.8 874 541.5C874 536.4 867.5 529.7 862.5 529.6C860.6 529.5 859 529.5 859 529.4C859 529.4 861.4 526.9 864.3 523.9C879.6 508.2 889.1 488.3 892.1 466.4C893.4 456.7 892.8 432.2 891.1 425.5C890.5 423.3 888.9 414.7 887.4 406.5C884.1 387.7 878.2 363.7 873 347.5C870.7 340.6 869.2 334.5 869.5 334C869.8 333.4 871 333 872 333C875 333 877 331.9 877 330.3C877 329.3 877.6 329 878.6 329.4C880 329.9 880.2 329.5 879.7 326.3C879.3 324.3 879.5 322.1 880.1 321.4C880.8 320.5 880.4 319.5 878.5 317.6C877.1 316.2 876 314.7 876 314.2C876 313.8 873.8 312.8 871.2 312.1C867.4 311.2 865.8 311.2 863.7 312.1C862.2 312.8 860.8 313.1 860.7 312.9C860.5 312.7 859.2 309.6 857.8 306C853.2 294.5 843.4 274.1 831.1 250.5C816.4 222.5 810 207.8 810 202.1C810 194.8 807 182.8 802.9 174.2C797.6 162.6 788.1 149.6 786.4 151.3C785.8 151.9 792.4 164.6 794.5 167C796.1 168.7 801.5 180.2 802.5 184L803.2 186.5L800.3 183.7C798.7 182.2 796.3 178.4 795 175.2C792 168 786.4 158.3 783.1 154.7C781.8 153.2 781 152 781.6 152C782.1 152 781.4 151.1 780 150L777.5 148.1L781.5 148.6C784.5 149 785.1 148.9 784 148.1C783.2 147.5 781 147 779.3 147C776.8 147 774.9 145.9 770.8 142C760.8 132.4 747.9 125 732.2 119.7C726.1 117.7 716.8 112 719.5 112C726.9 112 748 117.7 748 119.7C748 120.8 748.3 120.8 749.4 119.8C750.2 119.1 750.5 118.2 750.2 117.9C748.5 116.2 729.6 110 721.6 108.4C713.6 106.8 712.2 106.2 707.7 102.2C703.1 98.1001 694.1 93.0001 691.4 93.0001C690.8 93.0001 689 92.0001 687.4 90.8001C685.9 89.5001 684.9 89.1001 685.4 89.8001C686.5 91.6001 684.6 91.3001 680.8 89.1001C677.2 86.9001 671.8 86.0001 668 86.7001ZM678.4 88.6001C679.3 88.9001 680 89.6001 680 90.1001C680 90.7001 679.2 90.6001 678.1 90.0001C675.5 88.7001 672.9 88.6001 675 90.0001C676.8 91.2001 675.4 91.3001 670.9 90.3001L667.5 89.6001L671 88.9001C676.1 88.0001 676.7 87.9001 678.4 88.6001ZM665.9 91.4001C665.7 91.6001 663.9 92.0001 662 92.4001C659.5 92.8001 658.9 92.7001 660 92.0001C661.4 91.1001 666.9 90.5001 665.9 91.4001ZM682.8 96.2001C684.3 97.7001 684.4 100.3 682.8 99.8001C682.2 99.6001 681 98.4001 680.2 97.2001C679 95.3001 679 95.0001 680.2 95.0001C681 95.0001 682.1 95.5001 682.8 96.2001ZM686.4 97.6001C687.2 99.7001 687.2 100 686.1 100C685.6 100 685 99.1001 684.7 98.0001C684.1 95.6001 685.5 95.3001 686.4 97.6001ZM692.5 97.7001C694.9 98.1001 702.3 102.4 704 104.4C705.1 105.8 704.8 106 702.1 106C698.2 106 694.7 104.3 695.6 102.8C696 102.2 695.5 102 694.1 102.5C692.5 103 691.8 102.6 691.1 100.8C690.5 99.5001 690.1 99.1001 690.1 99.7001C689.9 102.2 688 101 688 98.4001C688 96.6001 688.4 96.1001 689.3 96.7001C689.9 97.1001 691.4 97.6001 692.5 97.7001ZM674 98.0001C676.4 99.5001 674.7 99.9001 672 98.5001C670.5 97.7001 670.1 97.1001 671 97.1001C671.8 97.0001 673.2 97.4001 674 98.0001ZM711.5 112C711.9 112.6 710.9 113 709.1 113C707.5 113 705.8 112.5 705.5 112C705.1 111.4 706.1 111 707.9 111C709.5 111 711.2 111.4 711.5 112ZM618.8 117.9C616.9 121 599 122 599 119C599 118.5 601.1 117.8 603.8 117.5C606.4 117.1 609 116.7 609.5 116.5C610.1 116.3 612.6 116.1 615.3 116.1C619.7 116 619.9 116.1 618.8 117.9ZM593.1 120.2C595.3 120.8 597 121.6 597 122C597 122.4 592.4 123 586.8 123.3C581.1 123.7 574.7 124.3 572.6 124.7C569.6 125.2 568.9 125 569.5 124.1C570.1 123.1 569.8 123 568.4 123.8C567.3 124.3 563.4 124.8 559.5 124.8C553.7 124.9 553 124.7 555.5 123.9C557.8 123.2 578.3 120.2 588.4 119.1C588.9 119 591 119.5 593.1 120.2ZM507 133.1C511.6 133.2 507.7 133.9 479 138C446.6 142.6 449 142.3 449 141C449 140.4 449.9 140 451 140C452.1 140 459.9 138.7 468.3 137C487.2 133.3 496.5 132 501 132.6C502.9 132.8 505.6 133 507 133.1ZM447.5 141.9C446.9 142.4 443.4 143.1 439.5 143.4L432.5 143.9L438.5 142.6C446 140.9 448.7 140.7 447.5 141.9ZM393.5 149.8C393.2 150.2 392.5 149.8 392 149C391.4 148.2 391 147.8 390.9 148.2C390.8 148.7 390.7 149.3 390.6 149.7C390.3 151.2 386.5 155 385.3 155C381.1 155 386.2 147.3 390.8 146.8C393.4 146.5 395 148.3 393.5 149.8ZM803.5 193.9C805.3 197.5 806.4 208.6 805.2 212.5L804.3 215.5L803 213C802.1 211.3 802 210.5 802.9 210.2C804.6 209.6 804.3 204 802.5 204C801.4 204 801 202.9 801 200.1C801 198 800.7 194.8 800.3 193C799.6 189.1 801.2 189.6 803.5 193.9ZM814 225.9C814 226.3 819 236.1 825.2 247.6C843.1 281.3 858.7 314.8 857.6 317.7C856.8 319.7 855.2 319.3 854.4 316.7C852.1 309.1 839.2 282.4 826.7 259.3C806.8 222.4 806.8 222.5 807.6 219.2C808 217.7 808.5 216.1 808.7 215.7C809.2 214.9 814 224.3 814 225.9ZM869.8 350.2C880.5 384.6 888 425.2 888 449.1C888 469.7 882.5 491.5 874 504.4C869 511.9 860 521.1 853.7 524.9C848 528.4 847 526.8 852.7 523.2C859.3 518.9 869.8 507.9 874.2 500.5C878.7 492.9 882.4 482.6 884.4 472C889.1 447.4 882.6 401 867.6 352.8C865.1 344.7 863 337.8 863 337.5C863 337.2 863.6 337 864.3 337C865.2 337 867.2 342 869.8 350.2ZM635.8 372.7C636 373.6 634.8 374 631.8 374C629.5 374 625.7 374.5 623.5 375C621.2 375.5 615.6 376.6 611 377.4C597.7 379.8 559.7 387 557.5 387.7C556.2 388 555.9 387.9 556.5 387.3C557.9 386 567.4 383.3 575 382C578.6 381.4 592.3 378.7 605.5 376C630 371.1 635 370.5 635.8 372.7ZM658.3 374.6C670.2 375.3 673 376.3 666.3 377.3C662.7 377.9 646.8 376.7 640.7 375.4C636.7 374.6 638.6 372.7 642.9 373.4C644.9 373.7 651.8 374.2 658.3 374.6ZM674 376C674 376.5 673.6 377 673.1 377C672.5 377 671.8 376.5 671.5 376C671.2 375.4 671.6 375 672.4 375C673.3 375 674 375.4 674 376ZM691.6 398.2C696.3 407.7 699.7 415 699.2 414.5C698.1 413.4 682 382.7 682 381.7C682 379.5 683.9 382.7 691.6 398.2ZM553 388C553 388.5 551.5 388.9 549.8 388.9L546.5 388.8L549.5 388C551.2 387.6 552.6 387.2 552.8 387.1C552.9 387.1 553 387.4 553 388ZM573 388.9C573 389.5 572.6 390.1 572 390.5C570.7 391.3 550.6 394.9 550.1 394.4C548.9 393.2 552.6 391.8 561.1 390.1C572.6 387.8 573 387.8 573 388.9ZM522 394C521.2 394.5 519.9 395 519.3 395C518.6 395 515.2 397.3 511.8 400.1C504.3 406.1 492.1 412.3 483 414.7C473.8 417.1 454.9 416.9 445.8 414.2L439 412.3L433.8 414.7C427.1 417.8 425.3 419.4 422.4 425.2C418.2 433.4 416.9 444.8 416 481.5C415.5 500.2 414.6 517 414.1 518.9C413.5 520.8 413.3 522.7 413.6 523.2C414.6 524.8 412.9 528 410.9 528C408.9 528 408.6 527 409.6 522.1C410.2 519.4 410.5 519.1 411.9 520.2C413.2 521.3 413.2 521 411.7 518.7C410.7 517.2 410.2 515.6 410.5 515.1C410.7 514.6 411.4 500.6 412 484.1C413.7 431 417 419.3 432 412.6L438 409.9L446.3 411.9C457.5 414.6 466.1 415.2 475.1 414.1C487.8 412.4 499.8 407.4 509.9 399.7C516.7 394.3 519 393 521.5 393C523.2 393 523.2 393.2 522 394ZM779.2 522.8C790.3 530.4 803 533.5 819.9 532.7C826.3 532.4 833 531.7 834.7 531C839.6 529.2 841.1 530.5 836.5 532.6C830.6 535.4 804 535.4 796 532.6C786.8 529.5 779.2 525 772.7 518.7C769.3 515.5 768.3 514.3 770.5 516.2C772.8 518.1 776.7 521.1 779.2 522.8ZM412 535.1C412 536.9 411.8 537 410.5 536C409.7 535.3 409 534.4 409 533.9C409 533.4 409.7 533 410.5 533C411.4 533 412 533.9 412 535.1Z" fill="white"/>
<path d="M689.8 86.7C690.5 87 691.4 86.9 691.7 86.6C692.1 86.3 691.5 86 690.4 86.1C689.3 86.1 689 86.4 689.8 86.7Z" fill="white"/>
<path d="M487 88.2C487 89.1 488.1 91.2 489.5 92.7C491.4 94.9 491.9 95.1 492 93.8C492 92.9 490.9 90.8 489.5 89.3C487.6 87.1 487.1 86.9 487 88.2Z" fill="white"/>
<path d="M629.5 100C629.2 100.6 629.6 100.7 630.4 100.4C632.2 99.7 632.5 99 631.1 99C630.5 99 629.8 99.4 629.5 100Z" fill="white"/>
<path d="M861.7 105.3C860.5 106.6 858.5 108.8 857.3 110.3C856 111.8 854.3 113 853.5 113C852.7 113 852.3 113.6 852.6 114.5C852.9 115.3 852.5 116.9 851.6 118.2C849.2 121.6 849.4 130.5 852 132.7C853.1 133.7 854 135.2 854 136.1C854 137 854.7 138 855.5 138.3C856.3 138.7 857.8 140.7 859 142.9C860.3 145.6 861.5 146.7 862.4 146.4C865.8 145.1 874.5 161.1 878.2 175.3C879.4 179.8 880.7 183.7 881.1 184C881.5 184.3 882.1 186.3 882.5 188.5C883.9 197.1 883.9 197.2 885.5 195.6C886.3 194.8 887 192.8 887 191.1C887 188.4 887.4 188 889.8 188C891.3 188 893.6 187.1 895 186C898 183.7 901.3 183.4 903 185.5C903.9 186.6 904.7 186.7 906 186C908.5 184.7 909 184.7 909 186.5C909 188.1 912 190 914.5 190C915.9 190 916 189.2 915.5 184.2C914.4 175.6 910.6 161.1 907.1 152.9C905.4 148.9 904.2 145.4 904.5 145.2C904.7 145 906.5 147.9 908.4 151.6C910.3 155.4 911.9 158.2 912 157.7C912 156.2 905.9 143.6 903.6 140.6C902.3 138.9 900.3 135.5 899 133C897.7 130.5 894.8 125.9 892.4 122.8C890 119.7 888 116.8 888 116.3C888 115.9 885.8 113.1 883.1 110.2C879.6 106.5 877.5 105 875.5 105C874 105 873.1 104.6 873.5 104C874.3 102.7 873.4 102.7 870.9 104.2C869.2 105.2 868.6 105.2 868.3 104.2C867.6 102.2 864.1 102.8 861.7 105.3Z" fill="white"/>
<path d="M447.8 104.7C448.5 105 449.4 104.9 449.7 104.6C450.1 104.3 449.5 104 448.4 104.1C447.3 104.1 447 104.4 447.8 104.7Z" fill="white"/>
<path d="M1055.3 113.9C1046.5 123.1 1042 127 1040.1 127C1039 127 1037.9 127.4 1037.5 128C1037.2 128.5 1034.1 128.7 1030.6 128.6C1023.3 128.2 1016.8 129.1 1018.8 130.4C1022.8 132.8 1035.8 131.1 1044.7 127C1047.1 125.9 1049.4 125 1050 125C1050.5 125 1051 124.3 1051 123.5C1051 122.7 1051.6 122 1052.4 122C1054.2 122 1062.2 113.1 1061.4 111.9C1060.4 110.2 1058.1 111 1055.3 113.9Z" fill="white"/>
<path d="M790 122.7C787.6 125.8 787.5 128.5 789.6 132.5C790.5 134.1 791.4 136.3 791.6 137.4C792.1 140.2 792.4 140.3 798 139.5C804 138.7 806 137 806 132.7C806 128.2 800.3 120.4 797.7 121.3C797 121.5 795.5 121.3 794.3 120.9C792.5 120.3 791.7 120.6 790 122.7Z" fill="white"/>
<path d="M342.8 148.1C340.4 149.5 340.5 152.6 343.1 154.3C347.7 157.6 352.4 152.3 348 148.8C345.5 146.7 345.1 146.7 342.8 148.1Z" fill="white"/>
<path d="M837.1 150.3C834.2 153.2 838 162.5 842.7 163.6C847.3 164.8 848.5 159.5 844.8 154C842.2 150.2 838.8 148.6 837.1 150.3Z" fill="white"/>
<path d="M804.2 152.2C802.1 154.3 802.8 157.9 805.5 159.2C807.6 160.2 808.2 160 809.4 158.5C812.3 154.5 807.5 148.9 804.2 152.2Z" fill="white"/>
<path d="M244.3 160.4C238.4 166.3 237 169.3 242.6 163.9C245.8 160.8 250.6 155 249.8 155C249.6 155 247.1 157.5 244.3 160.4Z" fill="white"/>
<path d="M801.6 161.9C800.6 163.5 802.1 166.1 803.9 165.8C806 165.4 806 161.6 803.8 161.2C802.9 161 801.9 161.3 801.6 161.9Z" fill="white"/>
<path d="M872.4 189C869.6 190.5 865.4 192.1 863.2 192.5C860.9 192.9 859 193.6 859 194.1C859 196 865.3 198.1 869.8 197.8C873.9 197.5 874.6 197.1 876.1 194.3C878.2 190.2 879 187.1 878.1 186.6C877.8 186.4 875.2 187.4 872.4 189Z" fill="white"/>
<path d="M829.5 204.1C826.5 209.8 828.2 219.3 831.9 218.3C834.5 217.6 837.4 212 837.4 207.8C837.2 200.8 832.3 198.5 829.5 204.1Z" fill="white"/>
<path d="M853.2 216.7C851.3 220.2 850.9 227.5 852.3 229.4C853.7 231.3 853.8 231.3 855.3 228.9C857.5 225.4 858.2 220.8 857.1 217.7C855.9 214.6 854.5 214.2 853.2 216.7Z" fill="white"/>
<path d="M1123.3 236.8C1117.8 238 1117 238.5 1115.5 241.7C1114.2 244.3 1113.9 246.7 1114.3 250.4C1115.1 257.1 1120.3 270.3 1121.6 269C1122.3 268.3 1123.3 268.6 1124.5 270C1125.5 271.1 1127.1 272 1128 272C1128.9 272 1130.5 272.9 1131.6 274.1L1133.4 276.1L1134.2 273.9C1135 271.8 1135.1 271.8 1137 273.5C1138.1 274.5 1139 275.9 1139 276.7C1139 277.4 1139.4 278 1139.8 278C1140.3 278 1140.4 276.6 1140.2 274.8C1139.8 272.3 1140 271.8 1141.3 272.3C1142.3 272.7 1143 272.1 1143.4 270.6C1143.7 269.3 1145.3 266.8 1146.9 265.1C1149.2 262.7 1149.5 261.8 1148.4 260.9C1146.9 259.6 1147.7 256.7 1149.4 257.7C1150 258.1 1149.4 256.8 1148 254.9C1145.8 252.1 1145.5 250.8 1146 247.3C1146.3 245 1146.3 243.3 1146 243.5C1145.6 243.8 1143.2 242.6 1140.6 241C1132.3 235.7 1130.3 235.2 1123.3 236.8Z" fill="white"/>
<path d="M1005.6 244.5C1005.1 245.8 1004.7 246 1003.6 245.1C1002.6 244.2 1001.9 244.5 1000.5 246.6C999.6 248 998.6 248.9 998.2 248.6C997.4 247.7 991 254.1 991 255.8C991 256.5 989.5 259.2 987.8 261.7C985.6 264.8 984.9 266.4 985.7 266.7C986.5 267 986.8 268.1 986.4 269.6C986.1 270.9 986.2 272.6 986.8 273.3C987.4 274 988 276.6 988.2 279C988.4 282.8 988.9 283.7 991.3 284.8C993.8 286 994 286.6 993.5 289.3C993 291.9 993.1 292.2 994 290.7C995.3 288.6 997.6 288.5 998.4 290.5C998.7 291.3 999.9 292 1001 292C1002.1 292 1003 292.7 1003 293.5C1003 294.8 1003.3 294.8 1004.9 293.8C1006.4 292.9 1007.4 292.9 1009.2 293.7C1010.5 294.4 1013.2 295 1015.2 295.2C1018.6 295.6 1019 295.3 1019.5 292.8C1020.2 289.8 1022.6 289.1 1025 291.2C1026.2 292.3 1026.2 292.2 1025.1 290.8C1023.2 288.3 1024.7 286.8 1028.6 287.2C1032.4 287.6 1032.7 287.4 1030.4 284.9C1028.5 282.7 1029.4 279 1031.9 279C1033.1 279 1033.6 278.3 1033.6 276.7C1033.5 274.9 1034 274.5 1036.5 274.7C1039.3 274.9 1039.3 274.9 1037.2 274C1033.9 272.6 1033.5 270.4 1036 267.3L1038.1 264.6L1035.6 262.7C1033.6 261.2 1033 260 1033 256.9C1033 253.4 1032.6 252.7 1029.5 250.9C1027.6 249.7 1026 248.2 1026 247.4C1026 246.7 1025.4 246.3 1024.6 246.6C1023.9 246.9 1022.6 246.5 1021.9 245.7C1021.1 245 1019.9 244.5 1019.2 244.8C1018.5 245 1016.5 244.7 1014.8 244.1C1012.3 243.2 1011.3 243.3 1009.9 244.6C1008.3 246 1008.1 246 1007.2 244.5C1006.4 242.9 1006.3 242.9 1005.6 244.5Z" fill="white"/>
<path d="M859.6 263.9C857.7 266 858.5 267 861.6 266.6C862.7 266.4 863.5 265.5 863.5 264.5C863.5 261.9 861.7 261.6 859.6 263.9Z" fill="white"/>
<path d="M950 337.5C950 338.4 950.5 339 951.1 338.8C951.7 338.6 952.2 338 952.2 337.5C952.2 337 951.7 336.4 951.1 336.2C950.5 336 950 336.6 950 337.5Z" fill="white"/>
<path d="M959.9 341.9C957.9 343.5 957.7 344.2 958.5 346.6C959.4 349 960.2 349.6 963.2 349.8C966 350 967.2 349.6 968.4 347.8C970.4 345 970.4 343.6 968.4 341.6C966.3 339.5 962.7 339.6 959.9 341.9Z" fill="white"/>
<path d="M1099.2 375.2C1097.4 377.4 1100.3 382.8 1103.1 382.6C1105.1 382.5 1105.5 382 1105.3 379.6C1105 374.8 1101.6 372.4 1099.2 375.2Z" fill="white"/>
<path d="M1252.4 385.5C1250.7 389.7 1250.6 392.4 1252.1 395.3C1254.4 399.6 1257.8 400.2 1261.1 396.9C1262.8 395.2 1263.1 394 1262.7 390.8C1261.5 382 1255.3 378.7 1252.4 385.5Z" fill="white"/>
<path d="M605.7 387.7C603.3 390 606.6 390.8 609.6 388.5C611.4 387.1 611.4 387.1 608.9 387C607.5 387 606 387.3 605.7 387.7Z" fill="white"/>
<path d="M617.8 392.8C613.8 394.6 612.9 396 615.6 396C617.5 396 623.8 393.1 624.6 391.9C625.4 390.5 621.9 391 617.8 392.8Z" fill="white"/>
<path d="M603.6 396.5C604 397.3 604.6 397.7 605.1 397.4C606.5 396.6 606.1 395 604.5 395C603.6 395 603.3 395.6 603.6 396.5Z" fill="white"/>
<path d="M125.8 407.7C123.1 410.6 122 414.7 122 421.5C122 428.4 122.4 429.2 125.6 428C129.4 426.5 131.7 411.7 128.7 407.6C127.5 406 127.4 406 125.8 407.7Z" fill="white"/>
<path d="M616.5 413C614.3 414 613 414.9 613.5 414.9C615.4 415.1 621.9 412.9 622.5 412C623.4 410.5 621 410.9 616.5 413Z" fill="white"/>
<path d="M628 416.8C628 417.8 628.6 419.5 629.4 420.5C630.7 422.3 630.8 422.3 631.9 420.1C632.9 418.4 632.9 417.5 631.9 416.4C630.3 414.4 628 414.6 628 416.8Z" fill="white"/>
<path d="M1059.7 420.8C1059 421.7 1058.6 425.4 1058.7 430.1C1058.9 436.7 1059.3 438.6 1061.2 441C1062.5 442.6 1064.3 443.9 1065.3 443.9C1066.2 444 1067 444.4 1067 445C1067 447.8 1068.8 445.4 1070.3 440.7C1072.5 433.6 1072.6 430.1 1070.7 426.3C1069.8 424.5 1069 422.4 1069 421.7C1069 419.6 1061.3 418.9 1059.7 420.8Z" fill="white"/>
<path d="M673.4 422.6C673.7 423.5 674 424.4 674 424.6C674 424.8 674.7 425 675.5 425C677.3 425 677.4 423.8 675.8 422.2C674.1 420.5 672.7 420.7 673.4 422.6Z" fill="white"/>
<path d="M424.1 434.6C424.1 435.7 424.4 436 424.7 435.2C425 434.5 424.9 433.6 424.6 433.3C424.3 432.9 424 433.5 424.1 434.6Z" fill="white"/>
<path d="M680 436.7C680 437.2 680.5 438.2 681 439C681.7 440.1 682.2 440.2 683.1 439.3C683.7 438.7 683.9 437.7 683.6 437.1C682.8 435.9 680 435.6 680 436.7Z" fill="white"/>
<path d="M423.2 439.5C423.2 441.1 423.4 441.7 423.7 440.7C423.9 439.8 423.9 438.4 423.7 437.7C423.4 437.1 423.2 437.8 423.2 439.5Z" fill="white"/>
<path d="M917.7 438.8C916.2 439.7 914 442.5 912.9 445C911.8 447.5 910.3 450.6 909.6 452C907.9 455.4 908.6 457.7 911.5 458.4C912.8 458.7 915.1 460.1 916.7 461.3C919.9 464 923.7 465.3 924.6 463.9C924.9 463.4 925.6 463 926.1 463C926.7 463 926.8 463.5 926.4 464.1C926.1 464.7 927 464.4 928.4 463.5C929.9 462.5 930.9 461.2 930.7 460.6C930.4 459.9 930.8 458.6 931.6 457.5C932.4 456.5 933 454.6 933 453.4C933 452.1 933.5 450.8 934 450.5C934.8 450 934.7 449.4 934 448.5C933.3 447.7 933.1 446.2 933.5 445C934 443.5 933.6 442.8 931.5 442C930.1 441.5 929.1 440.6 929.4 440.1C930.1 439.1 925.6 437 922.7 437C921.5 437 919.2 437.8 917.7 438.8Z" fill="white"/>
<path d="M645 441.4C645 442.2 645.5 443.2 646 443.5C646.6 443.8 647 443.4 647 442.6C647 441.8 646.6 440.8 646 440.5C645.5 440.2 645 440.6 645 441.4Z" fill="white"/>
<path d="M206.1 444.4C205.1 445.6 205.3 446.1 206.8 446.9C209.3 448.2 211.5 446.3 209.9 444.3C208.4 442.6 207.5 442.7 206.1 444.4Z" fill="white"/>
<path d="M422.3 448C422.3 450.5 422.5 451.5 422.7 450.2C422.9 449 422.9 447 422.7 445.7C422.5 444.5 422.3 445.5 422.3 448Z" fill="white"/>
<path d="M678.4 448.5C677.4 450.9 679.6 454.9 682.4 456C683.8 456.5 685.6 458.3 686.5 460C688.1 463.2 690 464 690 461.6C690 460.8 689.1 459.5 688 458.7C686.8 457.9 686 456.9 686.1 456.4C686.5 453.9 685.8 451.1 684.3 449.4C682 446.9 679.1 446.5 678.4 448.5Z" fill="white"/>
<path d="M215.3 451.6C215 452.4 215.2 453.6 215.9 454.3C216.7 455.1 217 454.7 217 452.7C217 449.7 216.3 449.2 215.3 451.6Z" fill="white"/>
<path d="M86.0999 454.5C83.3999 458.1 82.6999 462.1 83.4999 469.7C83.9999 474.4 83.7999 476.5 82.7999 477.7C81.6999 479.2 81.7999 479.3 83.7999 478.8C85.2999 478.4 86.2999 478.6 86.6999 479.6C87.3999 481.6 88.6999 480.5 92.5999 474.3C95.3999 470 96.1999 467.6 96.6999 462.1C97.1999 455.8 97.0999 455.2 94.8999 453.6C91.4999 451.3 88.4999 451.6 86.0999 454.5Z" fill="white"/>
<path d="M579.5 455.8C579.1 457.5 578.4 458.1 577.1 457.7C575.8 457.4 575.4 457.7 575.7 458.9C575.9 459.9 574.9 461.3 573.1 462.5C570.8 464 570.4 464.7 571.5 465.2C572.2 465.7 573.1 467.8 573.5 470C574.2 474.2 579.2 481.9 581.3 482.1C581.9 482.2 584 482.1 585.8 482C590.8 481.7 593.6 484.2 596.1 491C597.3 494.4 599.2 497.8 600.4 498.5C604.2 501.3 609 499.8 609 495.9C609 494.9 610.1 494 611.9 493.7C615.1 493 616.6 489.7 614.4 487.9C613.5 487.2 613 484.8 613 481.7V476.7L610.6 478.9C609.2 480.2 607.6 482.5 607 484.1C605.6 487.3 603.9 487.8 601.9 485.4C600.7 484 600.5 484 599.3 485.6C597.3 488.3 596.8 485.3 598.4 480.7C599.3 478 599.4 475.5 598.9 472.7C598.4 470.4 597.7 466.6 597.4 464.3C596.8 460.5 596.6 460.2 594.8 461.3C593.2 462.3 592.6 462.2 591.4 460.6C590.6 459.5 590 457.8 590 456.7C590 454.9 589.8 455 588.1 457.1L586.3 459.4L583.2 456.4L580.1 453.3L579.5 455.8Z" fill="white"/>
<path d="M676 456.4C676 457.9 677.8 459.5 678.6 458.7C679.3 458 677.9 455 676.9 455C676.4 455 676 455.6 676 456.4Z" fill="white"/>
<path d="M642 458.1C642 459.2 643.1 461.8 644.5 463.8L647 467.5V464.3C647 460.3 645.1 456 643.3 456C642.6 456 642 456.9 642 458.1Z" fill="white"/>
<path d="M421.4 480.5C421.4 493.7 421.6 499 421.7 492.2C421.9 485.4 421.9 474.6 421.7 468.2C421.6 461.8 421.4 467.3 421.4 480.5Z" fill="white"/>
<path d="M197.7 460.2C197 462.9 197.9 467 199.6 468.7C201.6 470.8 202.7 465.9 201.5 460.2C200.8 457.4 198.4 457.3 197.7 460.2Z" fill="white"/>
<path d="M214 462C214 463.8 214.4 464.9 215 464.5C215.6 464.2 216 463 216 462C216 461 215.6 459.8 215 459.5C214.4 459.1 214 460.2 214 462Z" fill="white"/>
<path d="M499.6 466.2C498.8 468 497.2 471.6 496.1 474.2C494.4 477.9 494.2 479.4 495 481C496.6 484 498.1 483.5 503.8 477.7C509.9 471.5 510.8 467.4 506.5 464.6C502.9 462.2 501.2 462.6 499.6 466.2Z" fill="white"/>
<path d="M479.4 464.8C478.8 465.2 478 466.5 477.6 467.7C477.1 469.3 477.4 470.2 478.9 470.9C484.6 474 489.7 469.8 485.4 465.6C483.8 463.9 481.2 463.6 479.4 464.8Z" fill="white"/>
<path d="M645.6 472.7C641 473.9 640.1 474.5 641.4 475.2C642.8 476 642.9 476.5 641.9 477.6C641 478.7 641.1 479 642.8 479C643.9 479 645.5 479.7 646.4 480.5C648.3 482.4 649.7 482.4 650.8 480.3C651.9 478.4 655 479.2 655 481.5C655 483.4 655.1 483.4 661.7 481.3C667.7 479.4 669.7 476.2 666.6 473.2C664.4 470.9 653.1 470.7 645.6 472.7Z" fill="white"/>
<path d="M2.2 480.3C1 481.6 0 482.9 0 483.3C0 483.7 2.2 484 5 484C8.9 484 10.2 483.6 11 482C11.8 480.5 11.6 479.9 10.1 479C7 477.4 4.5 477.8 2.2 480.3Z" fill="white"/>
<path d="M627 479.9C627 481.9 628.3 483.4 629.3 482.4C630 481.6 628.9 478 627.9 478C627.4 478 627 478.9 627 479.9Z" fill="white"/>
<path d="M904.5 482C902.2 484.5 902 490.7 904.1 492.1C904.8 492.6 906.7 493 908.1 493C911.4 493 914.2 487.6 913.1 483.3C912.1 479.6 907.3 478.9 904.5 482Z" fill="white"/>
<path d="M189.9 485.1C187.1 487.9 188 489.4 192.7 489.8C196.6 490.1 196.8 490 196.3 487.8C195.6 485.1 194.1 483 192.9 483C192.4 483 191.1 483.9 189.9 485.1Z" fill="white"/>
<path d="M696.1 485.9C693.1 487.8 698.3 494.7 701.9 493.5C704.7 492.6 704.5 490.5 701.5 487.5C698.9 484.8 698.2 484.6 696.1 485.9Z" fill="white"/>
<path d="M208 489.4C208 493.1 209.4 495 210.4 492.5C210.9 491 209.5 486 208.5 486C208.2 486 208 487.5 208 489.4Z" fill="white"/>
<path d="M894.6 489.5C892.5 491.6 892.5 494.9 894.6 495.7C897.2 496.7 899.5 494.6 899.5 491.4C899.5 488 897.1 487.1 894.6 489.5Z" fill="white"/>
<path d="M441.9 499C438.7 502.2 438.7 503.1 441.7 509.8C442.9 512.4 443.5 512.8 444.6 511.9C445.9 510.8 446.4 511.4 446.1 513.4C446 513.8 447.2 513.2 448.8 511.9C450.4 510.5 452.2 507.6 453 505.2C454.2 501.2 454.1 500.7 452 498.4C448.9 495.2 445.5 495.4 441.9 499Z" fill="white"/>
<path d="M208.5 498C208.1 498.6 208.2 499.6 208.8 500.2C209.4 500.8 210 500.8 210.5 500C210.9 499.4 210.8 498.4 210.2 497.8C209.6 497.2 209 497.2 208.5 498Z" fill="white"/>
<path d="M548.3 513.5C537.2 516.2 527.6 522.9 526.6 528.6L526.1 531.7L533.6 531.4C540.3 531.1 541.8 530.6 549 526.4C558 521.2 563 516.8 563 513.9C563 512.3 562.3 512 558.3 512.1C555.6 512.2 551.2 512.8 548.3 513.5Z" fill="white"/>
<path d="M926.5 513C926.2 513.5 926.4 514 926.9 514C927.5 514 928 513.5 928 513C928 512.4 927.8 512 927.6 512C927.3 512 926.8 512.4 926.5 513Z" fill="white"/>
<path d="M939 516.6C937.3 518.1 935.1 521.1 934 523.3C930 531.5 930.5 542.5 934.8 541.3C937.5 540.6 942.4 535.9 943.9 532.5C944.6 530.8 945.6 528.7 946.1 527.8C947.3 525.4 947.2 518.3 946 515.9C944.6 513.3 942.7 513.5 939 516.6Z" fill="white"/>
<path d="M173 519.4C173 520.2 173.5 521.2 174 521.5C174.6 521.8 175 521.4 175 520.6C175 519.8 174.6 518.8 174 518.5C173.5 518.2 173 518.6 173 519.4Z" fill="white"/>
<path d="M204 520C204 521.1 204.5 522 205 522C205.6 522 206 521.1 206 520C206 518.9 205.6 518 205 518C204.5 518 204 518.9 204 520Z" fill="white"/>
<path d="M614.1 521.1C611.6 522.2 605.8 525.9 601.1 529.4C596.4 532.9 590.8 536.8 588.7 538C586.6 539.3 585.1 540.8 585.4 541.5C585.6 542.2 584.8 543.2 583.5 543.8C582.1 544.4 581.1 546 580.8 547.8L580.4 550.7L586.9 550.2C590.6 550 594.3 549.4 595.3 548.9C596.2 548.3 597.4 548.1 597.8 548.4C598.3 548.7 600.8 547.1 603.4 545C606.1 542.8 608.8 541 609.5 541C611.2 541 620.7 529.6 622.9 525.2C624.4 522 624.4 521.7 622.5 520.4C620.1 518.6 619.4 518.6 614.1 521.1Z" fill="white"/>
<path d="M220.1 524C220.1 524.8 220.5 526.4 221 527.5C221.5 528.8 221.9 528.9 221.9 528C221.9 527.2 221.5 525.6 221 524.5C220.5 523.2 220.1 523.1 220.1 524Z" fill="white"/>
<path d="M223.1 534C223.1 534.8 223.5 536.4 224 537.5C224.5 538.8 224.9 538.9 224.9 538C224.9 537.2 224.5 535.6 224 534.5C223.5 533.2 223.1 533.1 223.1 534Z" fill="white"/>
<path d="M197.1 536.6C197.1 537.7 197.4 538 197.7 537.2C198 536.5 197.9 535.6 197.6 535.3C197.3 534.9 197 535.5 197.1 536.6Z" fill="white"/>
<path d="M225.2 541C225.2 541.8 225.8 544.1 226.5 546C227.2 547.9 227.8 548.8 227.8 548C227.8 547.2 227.2 544.9 226.5 543C225.8 541.1 225.2 540.2 225.2 541Z" fill="white"/>
<path d="M720.9 542.3C720 543 719.5 544.1 719.7 544.7C720 545.4 719.6 546 718.9 546C718.1 546 718.2 546.6 719.3 547.8C720.3 548.8 721 550.2 721 550.8C721 551.4 723 553.3 725.5 555C731.4 559 739.3 560.1 741 557.1C744.6 550.3 727.3 537.5 720.9 542.3Z" fill="white"/>
<path d="M228.2 551C228.2 551.8 229 554.7 230 557.5C231 560.2 231.8 561.8 231.8 561C231.8 560.2 231 557.2 230 554.5C229 551.7 228.2 550.2 228.2 551Z" fill="white"/>
<path d="M826 557C824.7 557.9 824.7 558.1 825.9 558.9C827.6 560 830.2 559.2 829.7 557.7C829.2 556.2 827.7 555.9 826 557Z" fill="white"/>
<path d="M203.7 557.6C202.9 558.5 204.8 562 206.1 562C206.7 562 207 561 206.8 559.8C206.5 557.6 204.9 556.4 203.7 557.6Z" fill="white"/>
<path d="M232 563.9C232 565.4 239.7 585.4 243.2 593.1C247.4 602.1 254 613.6 257 617C259.6 620 258.8 618.4 254.1 611C249.3 603.4 239.9 583.3 236 572.2C233 563.7 232 561.7 232 563.9Z" fill="white"/>
<path d="M624 563.8C624 564.3 622.2 565.5 620 566.5C615.4 568.6 615.5 568.4 617.5 573.9C618.3 576.2 618.8 578.6 618.5 579.3C618 581.2 630.6 591.1 634.4 591.7C638.7 592.4 644.1 590.6 646.9 587.6C648.9 585.4 649 584.9 647.9 580.4C645.8 572 642.5 567.2 637 565.2C633 563.7 624 562.7 624 563.8Z" fill="white"/>
<path d="M193.3 567.6C192.6 569.5 195.6 572.8 196.9 571.5C198 570.3 196.5 566 195 566C194.4 566 193.7 566.7 193.3 567.6Z" fill="white"/>
<path d="M214 568.5C215.3 569.9 216.6 571 216.8 571C217.1 571 216.3 569.9 215 568.5C213.7 567.1 212.4 566 212.2 566C211.9 566 212.7 567.1 214 568.5Z" fill="white"/>
<path d="M169.3 570C169.7 571.4 170 572.8 170 573.2C170 573.7 170.6 574 171.4 574C173.2 574 172.4 570.6 170.2 568.8C168.9 567.7 168.7 567.8 169.3 570Z" fill="white"/>
<path d="M230.3 574.4C231.8 575.8 233.6 577 234.3 577C235.6 576.9 232.7 574.4 229.5 572.9C228.2 572.2 228.5 572.8 230.3 574.4Z" fill="white"/>
<path d="M1042 572.9C1036.4 573.7 1033.5 575.5 1023 584.5C1017.9 588.9 1014 593.2 1012.5 596.1C1010.1 600.8 1005.5 605.4 1001.3 607.3C1000 607.9 999 609.1 999 610.1C999 611 996.9 614.4 994.3 617.7C991.8 620.9 989.2 624.1 988.6 624.8C987.9 625.7 988 626.4 988.9 626.9C989.7 627.5 985.8 631.9 976.3 640.9C968.7 648.1 963.4 653.8 964.5 653.4C966 652.9 965.6 653.7 962.9 656.6C961 658.7 957.2 663.1 954.5 666.4C951.9 669.6 947.5 673.8 944.8 675.8C942.2 677.8 940 679.8 940 680.3C940 680.8 941.6 681 943.5 680.7C947.5 680 947.6 680.2 945.3 683.6C943.4 686.5 937.1 691.1 928.5 695.7C921.7 699.4 921.7 699.5 928.4 697.5C934.1 695.8 935.1 696.2 932.4 699.1C930.5 701.2 930.5 701.2 933.3 699.9C940.4 696.7 938.1 704.7 930.1 710.7C924.9 714.7 925.4 714.8 932.3 711.3C938.6 708.2 946.1 706 951.3 706C955.2 706 955.7 706.8 954 710.1C952.2 713.3 954.9 712.4 962 707.5C974.1 699.1 977.3 697.1 978 697.5C978.4 697.7 980.5 696.4 982.6 694.6C987.6 690.4 993 687.6 994.1 688.7C994.6 689.2 993.9 691.9 992.5 694.8C991.2 697.6 990.2 700 990.4 700C990.6 700 992.9 696.6 995.6 692.5C999.1 687.2 1001.1 685 1002.5 685C1004 685 1008.4 680 1018.1 667.2C1025.6 657.5 1033.5 646.8 1035.7 643.5C1040.2 636.7 1045.4 626.1 1045.1 624.3C1045 623.6 1046 621.1 1047.3 618.8C1050.6 612.9 1051.3 609.5 1049.8 605.4C1048.8 602.5 1048.9 601 1050.7 595C1052.4 589.1 1052.5 588 1051.3 588C1050.1 588 1049.9 587.1 1050.2 584.3C1050.7 580.3 1048.9 572.7 1047.4 572.4C1046.9 572.4 1044.5 572.6 1042 572.9Z" fill="white"/>
<path d="M426.1 576.6C423.8 579.5 423.3 584.9 425.1 586.7C427 588.6 431.7 585.4 433.1 581.3C434.2 577.9 434.1 577.5 432 575.8C429.1 573.4 428.5 573.5 426.1 576.6Z" fill="white"/>
<path d="M458 575.6C458 576.4 458.5 576.8 459 576.5C459.6 576.2 460 575.5 460 574.9C460 574.4 459.6 574 459 574C458.5 574 458 574.7 458 575.6Z" fill="white"/>
<path d="M708.5 576.5C715.1 582 737.1 588.2 754 589.4L761.5 590L754.5 588.6C747.9 587.3 719.9 578.7 711.7 575.5C706.3 573.3 705.1 573.7 708.5 576.5Z" fill="white"/>
<path d="M774 575C773.1 575.5 773.4 576.2 775.1 577.4C778 579.4 781 579.5 781 577.6C781 575.9 775.8 573.9 774 575Z" fill="white"/>
<path d="M440.2 585.7C439.7 586.7 439.5 588.1 439.7 588.8C440.4 590.6 443 588.3 443 585.9C443 583.5 441.4 583.4 440.2 585.7Z" fill="white"/>
<path d="M794.8 593.7C795.4 593.9 796.6 593.9 797.3 593.7C797.9 593.4 797.4 593.2 796 593.2C794.6 593.2 794.1 593.4 794.8 593.7Z" fill="white"/>
<path d="M496.1 599.3C494.5 601.3 495.5 604.9 497.1 603.3C497.7 602.7 498 601.2 497.8 600C497.5 597.9 497.4 597.8 496.1 599.3Z" fill="white"/>
<path d="M857.5 601.6C851.2 603.8 849.3 605 848.2 607.5C847.2 609.6 847.4 610 849.7 610.7C856 612.8 869 607.2 869 602.3C869 600.3 868.5 600 865.3 600.1C863.2 600.1 859.7 600.8 857.5 601.6Z" fill="white"/>
<path d="M635 609.8C630.9 611.9 620.8 617.8 612.5 622.9C604.3 628 595.6 633.2 593.2 634.4C588.8 636.5 588.8 636.5 591.6 637C594.4 637.5 594.4 637.5 589.8 640C587.2 641.3 585.2 642.6 585.4 642.7C585.6 642.9 591 641.2 597.5 639C616.7 632.3 630.2 624.7 638.9 615.6C643.3 610.8 645.6 606 643.3 606C642.8 606 639.1 607.8 635 609.8Z" fill="white"/>
<path d="M425.5 614.2C419.2 617.8 413.8 633.9 417.7 637.2C420.2 639.2 423.2 638.7 426.4 635.5C431.1 630.9 433.3 625.4 432.5 620C431.5 613.2 429.7 611.8 425.5 614.2Z" fill="white"/>
<path d="M236 629C236 629.5 236.5 630 237 630C237.6 630 238 629.5 238 629C238 628.4 237.6 628 237 628C236.5 628 236 628.4 236 629Z" fill="white"/>
<path d="M767 632.5C767.7 633.3 769.8 634 771.9 634C775.3 633.9 775.4 633.8 773.6 632.5C772.5 631.7 770.3 631 768.7 631C766.2 631 765.9 631.2 767 632.5Z" fill="white"/>
<path d="M247 633.5C247 635 250.4 639 251.6 639C253.6 639 253.3 637.6 250.7 635.2C248.4 633.1 247 632.4 247 633.5Z" fill="white"/>
<path d="M277.3 663.8C273.5 664.4 274.6 667.3 279.3 669.2C285.7 671.9 289.1 672.2 293.4 670.7L297.3 669.4L291.9 667C285.9 664.4 280.7 663.3 277.3 663.8Z" fill="white"/>
<path d="M349.7 666C345.7 666.7 341.3 670.1 341.3 672.5C341.3 676.2 353.3 672.8 354.6 668.6C355.5 666 354 665.2 349.7 666Z" fill="white"/>
<path d="M298.6 669.9C298.3 670.4 299.5 671 301.3 671.2C305.3 671.6 308 671.1 308 669.9C308 668.7 299.3 668.7 298.6 669.9Z" fill="white"/>
<path d="M922 704C921.2 704.5 921 705 921.5 705C922.1 705 923.2 704.5 924 704C924.8 703.5 925.1 703 924.5 703C924 703 922.8 703.5 922 704Z" fill="white"/>
<path d="M311 775.5C307.4 776.3 303 776.9 301.3 776.9C299.5 777 298 777.5 298 778C298 778.6 299.5 778.8 302 778.4C304.5 778 306.5 778.2 307.5 779C309.8 780.9 329.9 780 333.3 777.7C334.8 776.7 335.8 775.5 335.5 775C334.6 773.6 318.6 774 311 775.5Z" fill="white"/>
<path d="M605 833C605 833.5 605.5 834 606.1 834C606.6 834 606.8 833.5 606.5 833C606.2 832.4 605.7 832 605.4 832C605.2 832 605 832.4 605 833Z" fill="white"/>
</svg>
